<svg xmlns="http://www.w3.org/2000/svg"  viewBox="0 0 48 48" width="48px" height="48px" baseProfile="basic"><path fill="#ed488b" d="M24.093,5.444c-2.244-0.015-4.524,0.089-6.767,0.012c-2.243-0.078-4.538-0.062-6.662,0.663 s-4.078,2.278-4.75,4.419c-0.271,0.865-0.324,1.78-0.363,2.686c-0.129,3.063-0.108,6.131-0.087,9.197 c0.028,4.09,0.057,8.18,0.085,12.27c0.012,1.722,0.325,3.593,1.415,4.927c0.449,0.55,0.793,0.963,1.403,1.327 c2.611,1.559,5.681,1.587,8.719,1.46c1.559-0.065,3.577-0.093,5.137-0.058c3.86,0.088,6.987,0.564,10.725,0.25 c1.591-0.134,3.125-0.175,4.647-0.66c2.737-0.872,4.753-3.092,4.81-5.964c0.014-0.728,0.031-1.595,0.042-2.323 c0.015-1.067,0.053-2.471,0.089-3.698c0.106-3.617-0.076-7.292-0.087-10.908c-0.008-2.561,0.292-5.073-0.144-7.599 c-0.105-0.608-0.228-1.217-0.455-1.791c-0.792-2.008-2.437-3.252-4.523-3.805s-4.599-0.464-6.78-0.363 C28.391,5.585,26.251,5.459,24.093,5.444z"/><path fill="#fff" d="M18.097,21.469c-0.635,0.004-0.992,0.383-1.302,0.823c-0.098,0.139-0.282,0.618-0.28,0.797 c0.001,0.165,0.069,0.445,0.156,0.575c0.221,0.327,0.388,0.494,0.705,0.688c0.147,0.09,0.431,0.138,0.596,0.154 c0.264,0.025,0.52-0.1,0.759-0.234c0.303-0.169,0.624-0.388,0.732-0.757c0.142-0.488-0.092-1.061-0.369-1.463 C18.855,21.702,18.482,21.467,18.097,21.469z"/><path fill="#fff" d="M30.056,21.475c-0.331-0.039-0.643,0.13-0.916,0.347c-0.273,0.217-0.568,0.474-0.622,0.848 c-0.042,0.291,0.076,0.581,0.212,0.832c0.304,0.56,0.812,1.083,1.385,0.998c0.2-0.03,0.386-0.132,0.556-0.254 c0.314-0.227,0.593-0.544,0.721-0.943c0.128-0.398,0.081-0.885-0.178-1.19C30.885,21.722,30.529,21.531,30.056,21.475z"/><path fill="#fff" d="M19.02,27.522c0,0.977,1.002,1.71,1.501,2.065c0.465,0.33,1.284,0.575,1.846,0.667 c0.883,0.145,1.785,0.291,2.672,0.169c0.815-0.112,1.423-0.3,2.155-0.675c0.787-0.403,1.501-1.565,1.674-2.432 c-1.369,0.943-2.845,1.199-4.039,1.257c-0.659,0.032-1.34,0.023-1.905-0.027C21.68,28.436,20.144,28.151,19.02,27.522z"/><path fill="#fff" d="M34.74,34.56c0.66-0.29,1.04-0.42,1.15-0.6c0.12-0.22,0.19-1.02,0.2-1.26 c0.2-2.67,0.39-5.34,0.59-8.01c0.06-0.84,0.12-1.68,0.08-2.52c-0.04-0.68-0.15-1.35-0.12-2.03c0.02-0.79-0.02-2.27-0.01-3.06 c0.05-2.87-0.6-5.26-0.22-8.39C29.94,8.02,23.6,8.72,17.13,8.2c-1.64-0.13-3.62,0.39-5.53,0.34c-0.35,3.02-0.1,5.99-0.15,9.03 c-0.03,1.76-0.06,3.86,0.15,5.61c0.38,3.04,0,5.71,0.24,8.2c0.06,0.66,0.17,1.7,0.34,2.34c0.3,0.38,0.64,0.58,1.15,0.74 c-1.36,0.9-2.05,2.07-2.97,3.42c-0.08,0.12-0.16,0.25-0.15,0.4c0.02,0.13,0.11,0.24,0.2,0.33c0.33,0.37,1.15,0.99,1.37,1.03 c0.43,0.08,0.58-0.53,0.85-0.89c0.8-1.09,1.35-1.89,2.56-2.87c0.7-0.56,1.81-1.29,2.16-1.31c0.3-0.01,1.67,0.87,2.28,1.61 c0.77-0.55,1.55-1.11,2.33-1.66c0.8,0.48,1.51,1.11,2.1,1.83c0.76-0.5,1.47-1.08,2.13-1.71c0.83,0.5,1.61,1.11,2.29,1.8 c0.93-0.56,1.67-1.32,2.35-1.63c2.31,0.99,3.87,2.9,5.46,4.9c0.61-0.6,1.11-0.88,1.9-1.23C37.25,36.9,36.09,35.44,34.74,34.56z M34.14,25.49c-0.21,2.2,0.01,4.8-0.43,6.7c-0.18,0.77-0.62,0.57-1.27,1.19c-0.61-0.29-1.29-0.68-2-1.18 c-0.81,0.51-1.35,0.66-2.16,1.16c-0.46-0.32-0.77-0.54-1.23-0.86c-0.1-0.08-0.43-0.28-0.56-0.3c-0.13-0.01-0.56,0.2-0.68,0.26 c-0.72,0.36-1.07,0.63-1.72,1.04c-0.45-0.22-0.6-0.34-1.06-0.71c-0.12-0.09-0.67-0.47-0.81-0.52c-0.24-0.1-0.59,0.03-0.82,0.16 c-0.28,0.16-0.52,0.34-0.89,0.63c-0.32,0.25-0.68,0.31-0.86,0.37c-0.15,0.05-0.83-0.43-1.09-0.61c-0.31-0.21-0.65-0.4-1.02-0.38 c-0.58,0.04-1.36,0.58-1.85,0.88c-0.45-0.26-0.74-0.54-0.96-0.86c-0.11-0.18-0.13-0.83-0.14-1.04c-0.32-6.16-0.35-12.3-0.16-18.6 c0.02-0.6,0.04-0.83,0.06-1.43c1.69-0.19,2.93-0.11,4.61,0.02c1.39,0.11,2.72,0.13,4.11,0.13c1.03,0,3.12-0.08,4.14-0.08 c2.57,0,3.94-0.18,6.29,0.09c0.04,2.67,0.03,3.75,0.26,5.21c0.11,0.69,0.28,2.96,0.24,3.65C34.09,21.44,34.23,24.46,34.14,25.49z"/><g><path d="M38.619,38.23c-0.792-1.321-1.733-2.561-2.916-3.545c0.306-0.15,0.58-0.343,0.7-0.676c0.225-0.62,0.197-1.391,0.245-2.039 c0.154-2.102,0.307-4.203,0.461-6.305c0.071-0.971,0.167-1.945,0.163-2.919c-0.004-0.942-0.146-1.873-0.131-2.816 c0.026-1.619,0.04-3.263-0.072-4.878c-0.149-2.13-0.401-4.226-0.163-6.361c0.032-0.287-0.256-0.475-0.5-0.5 c-4.215-0.428-8.448-0.29-12.677-0.282c-2.121,0.004-4.241-0.038-6.357-0.19c-1.935-0.138-3.833,0.347-5.767,0.326 c-0.278-0.003-0.429,0.184-0.467,0.396c-0.011,0.035-0.029,0.065-0.033,0.104c-0.295,2.592-0.162,5.195-0.149,7.797 c0.011,2.284-0.107,4.565,0.148,6.841c0.261,2.326,0.092,4.641,0.16,6.972c0.03,1.007,0.126,2.023,0.291,3.018 c0.078,0.472,0.142,0.823,0.506,1.157c0.107,0.099,0.231,0.166,0.351,0.24c-0.449,0.385-0.868,0.797-1.237,1.276 c-0.281,0.365-0.542,0.744-0.799,1.125c-0.242,0.358-0.594,0.733-0.644,1.176c-0.078,0.693,0.725,1.224,1.216,1.584 c0.468,0.343,0.997,0.618,1.509,0.177c0.242-0.208,0.36-0.523,0.525-0.786c0.224-0.357,0.498-0.699,0.755-1.033 c0.575-0.747,1.232-1.418,1.982-1.99c0.346-0.264,0.708-0.512,1.083-0.735c0.155-0.092,0.336-0.223,0.514-0.269 c0.028-0.007,0.028-0.009,0.042-0.014c0.002,0.006,0.003,0.011,0.031,0.018c0.666,0.149,1.461,0.95,1.883,1.44 c0.133,0.154,0.437,0.199,0.606,0.078c0.692-0.494,1.384-0.987,2.075-1.481c0.657,0.445,1.244,0.958,1.756,1.573 c0.133,0.159,0.436,0.193,0.606,0.078c0.675-0.456,1.305-0.966,1.906-1.513c0.685,0.446,1.324,0.943,1.907,1.521 c0.153,0.152,0.419,0.196,0.606,0.078c0.726-0.456,1.367-1.067,2.114-1.491c2.125,1.036,3.633,2.858,5.083,4.682 c0.171,0.215,0.529,0.169,0.707,0c0.538-0.51,1.127-0.848,1.801-1.148C38.685,38.805,38.746,38.441,38.619,38.23z M32.724,35.308 c-0.538-0.383-1.533-1.188-2.215-0.896c-0.725,0.31-1.343,0.92-1.994,1.391c-0.642-0.596-1.327-1.137-2.078-1.595 c-0.192-0.117-0.447-0.073-0.606,0.078c-0.537,0.514-1.111,0.977-1.715,1.408c-0.566-0.617-1.192-1.162-1.906-1.608 c-0.14-0.087-0.366-0.099-0.505,0c-0.677,0.483-1.355,0.967-2.032,1.45c-0.399-0.396-0.844-0.753-1.318-1.046 c-0.378-0.234-0.804-0.497-1.261-0.374c-0.624,0.167-1.22,0.633-1.731,1.007c-0.669,0.49-1.299,1.034-1.846,1.659 c-0.486,0.556-0.957,1.16-1.362,1.777c-0.091,0.139-0.157,0.294-0.248,0.432c-0.105,0.16,0.046,0.155-0.11,0.11 c-0.262-0.075-0.544-0.383-0.741-0.558c-0.38-0.337-0.264-0.406,0.018-0.825c0.231-0.343,0.459-0.688,0.703-1.022 c0.508-0.696,1.089-1.316,1.803-1.805c0.361-0.248,0.3-0.771-0.119-0.914c-0.515-0.175-0.813-0.346-0.912-0.886 c-0.084-0.458-0.135-0.921-0.182-1.384c-0.096-0.936-0.122-1.871-0.116-2.811c0.008-1.109,0.044-2.217,0.017-3.325 c-0.027-1.116-0.176-2.215-0.259-3.326c-0.162-2.168-0.036-4.344-0.062-6.515c-0.026-2.234-0.093-4.467,0.116-6.694 c1.775-0.049,3.525-0.447,5.306-0.317c2.116,0.154,4.236,0.194,6.357,0.19c4.053-0.008,8.11-0.122,12.151,0.244 c-0.165,2.081,0.084,4.131,0.21,6.212c0.121,2.001-0.071,4.022,0.104,6.018c0.213,2.426-0.129,4.892-0.306,7.313 c-0.092,1.253-0.182,2.506-0.275,3.759c-0.024,0.329,0.023,0.891-0.141,1.18c-0.132,0.231-0.719,0.377-0.979,0.49 c-0.372,0.162-0.276,0.677,0,0.864c1.243,0.839,2.177,2.033,2.973,3.291c-0.396,0.205-0.767,0.439-1.116,0.716 C35.267,37.645,34.143,36.319,32.724,35.308z"/><path d="M34.668,24.443c0.008-2.576,0.091-5.22-0.275-7.776c-0.243-1.695-0.226-3.408-0.257-5.117 c-0.005-0.293-0.226-0.469-0.5-0.5c-2.932-0.33-5.945-0.109-8.889-0.036c-1.637,0.041-3.279,0.041-4.914-0.054 c-1.796-0.104-3.548-0.266-5.345-0.067c-0.051,0.006-0.091,0.026-0.134,0.043c-0.018,0.005-0.036,0.01-0.053,0.017 c-0.012,0.006-0.024,0.012-0.035,0.019c-0.15,0.072-0.269,0.208-0.277,0.421c-0.151,4.038-0.208,8.079-0.154,12.12 c0.028,2.068,0.084,4.137,0.173,6.203c0.035,0.83,0.01,1.7,0.151,2.522c0.12,0.697,0.709,1.162,1.283,1.513 c0.148,0.091,0.357,0.093,0.505,0c0.377-0.235,0.749-0.495,1.158-0.671c0.512-0.22,0.843-0.072,1.284,0.225 c0.459,0.309,0.92,0.713,1.498,0.575c0.363-0.086,0.68-0.25,0.978-0.472c0.234-0.174,0.833-0.744,1.177-0.679 c0.261,0.049,0.582,0.377,0.793,0.539c0.324,0.248,0.639,0.477,1.001,0.667c0.156,0.081,0.35,0.099,0.505,0 c0.559-0.358,1.265-1.002,1.922-1.142c0.318-0.068,0.444,0.07,0.724,0.266c0.348,0.243,0.692,0.491,1.039,0.736 c0.141,0.1,0.362,0.086,0.505,0c0.612-0.37,1.262-0.666,1.885-1.015c0.572,0.378,1.158,0.729,1.776,1.031 c0.212,0.103,0.43,0.079,0.606-0.078c0.491-0.438,1.117-0.562,1.348-1.246c0.291-0.863,0.307-1.877,0.344-2.778 C34.559,27.96,34.663,26.192,34.668,24.443z M33.532,27.855c-0.02,1.067-0.019,2.139-0.138,3.201 c-0.043,0.382-0.049,1.05-0.348,1.326c-0.178,0.164-0.402,0.288-0.621,0.42c-0.599-0.309-1.177-0.652-1.737-1.032 c-0.143-0.097-0.36-0.088-0.505,0c-0.605,0.366-1.247,0.66-1.863,1.003c-0.57-0.451-1.362-1.187-2.05-1.044 c-0.781,0.163-1.517,0.724-2.189,1.178c-0.556-0.362-1.05-0.871-1.665-1.099c-1.01-0.373-1.708,0.686-2.522,1.025 c-0.061,0.025-0.161,0.065-0.238,0.076c-0.017-0.006-0.048-0.014-0.081-0.029c-0.167-0.073-0.324-0.196-0.475-0.297 c-0.336-0.224-0.667-0.473-1.064-0.58c-0.837-0.227-1.643,0.278-2.341,0.724c-0.233-0.159-0.461-0.356-0.548-0.611 c-0.095-0.277-0.058-0.65-0.072-0.94c-0.048-0.972-0.09-1.945-0.124-2.917c-0.068-1.906-0.109-3.813-0.127-5.72 c-0.033-3.56,0.026-7.119,0.152-10.677c1.627-0.124,3.225,0.005,4.858,0.099c1.635,0.094,3.277,0.094,4.914,0.054 c2.78-0.069,5.618-0.254,8.395,0.001c0.017,1.346,0.014,2.699,0.167,4.036c0.139,1.221,0.292,2.43,0.333,3.661 C33.733,22.429,33.582,25.141,33.532,27.855z"/><path d="M19.629,24.214c0.295-0.342,0.417-0.774,0.362-1.221c-0.119-0.967-0.838-2.006-1.894-2.023 c-0.442,0.01-0.831,0.154-1.173,0.43c-0.238,0.192-0.468,0.454-0.61,0.726c-0.145,0.277-0.294,0.633-0.298,0.952 c-0.005,0.433,0.179,0.802,0.441,1.132c0.509,0.642,1.387,0.998,2.174,0.666C18.99,24.724,19.37,24.513,19.629,24.214z M17.652,23.934c0,0-0.001,0-0.001,0C17.614,23.922,17.606,23.902,17.652,23.934z M18.285,23.943 c-0.022,0.011-0.025,0.013-0.035,0.018c-0.001-0.001-0.002-0.001-0.021,0.005c-0.042,0.015-0.085,0.027-0.128,0.038 c-0.007,0.002-0.026,0.003-0.039,0.004c-0.03,0-0.06-0.003-0.09-0.002c-0.003,0-0.001,0-0.004,0 c-0.079-0.014-0.157-0.027-0.234-0.048c-0.027-0.007-0.054-0.016-0.081-0.024c-0.05-0.037-0.108-0.066-0.16-0.101 c-0.012-0.009-0.04-0.03-0.049-0.035c-0.01-0.009-0.021-0.017-0.031-0.026c-0.05-0.044-0.098-0.091-0.143-0.14 c-0.023-0.026-0.044-0.053-0.068-0.079c-0.005-0.006-0.003-0.002-0.005-0.005c-0.005-0.007-0.003-0.006-0.011-0.017 c-0.034-0.049-0.065-0.102-0.101-0.148c-0.003-0.004-0.003-0.002-0.005-0.005c-0.01-0.034-0.023-0.066-0.032-0.1 c-0.008-0.028-0.015-0.057-0.021-0.086c-0.007-0.031-0.009-0.148-0.009-0.032c0-0.016-0.001-0.045-0.004-0.065 c0.008-0.035,0.015-0.071,0.025-0.106c0.016-0.055,0.034-0.109,0.053-0.163c0.011-0.031,0.023-0.061,0.034-0.091 c0.003-0.008,0.002-0.005,0.003-0.01c0.002-0.004,0.001-0.001,0.004-0.007c0.048-0.099,0.1-0.185,0.165-0.274 c0.002-0.002,0,0,0.001-0.002c0.024-0.029,0.048-0.059,0.073-0.088c0.048-0.055,0.099-0.108,0.152-0.158 c0.016-0.015,0.033-0.029,0.049-0.044c0.01-0.008,0.031-0.025,0.05-0.038c0.05-0.033,0.103-0.06,0.156-0.087 c0.004-0.002,0.008-0.004,0.011-0.005c0.041-0.011,0.08-0.025,0.121-0.035c0,0,0.04-0.007,0.065-0.012 c0.029-0.001,0.106-0.006,0.118-0.007c-0.001,0,0.039,0.003,0.065,0.004c0.026,0.005,0.066,0.013,0.066,0.013 c0.019,0.005,0.039,0.012,0.058,0.018c0.01,0.003,0.024,0.007,0.033,0.012c0.034,0.019,0.067,0.036,0.1,0.056 c0.009,0.006,0.034,0.022,0.048,0.032c0.056,0.045,0.107,0.096,0.156,0.148c0.017,0.018,0.014,0.015,0.019,0.021 c0.021,0.029,0.041,0.059,0.061,0.089c0.039,0.06,0.076,0.122,0.11,0.185c0.028,0.052,0.055,0.105,0.079,0.159 c0.006,0.015,0.02,0.049,0.024,0.06c0.017,0.047,0.032,0.094,0.046,0.142c0.011,0.04,0.019,0.081,0.03,0.12 c0.001,0.005,0.004,0.019,0.007,0.032c0.008,0.065,0.01,0.132,0.007,0.197c-0.001,0.016-0.008,0.054-0.009,0.064 c-0.005,0.02-0.01,0.04-0.015,0.06c-0.005,0.02-0.003,0.014-0.005,0.021c-0.017,0.035-0.037,0.067-0.056,0.101 c-0.006,0.01-0.005,0.01-0.008,0.016c-0.003,0.002-0.001-0.001-0.006,0.003c-0.026,0.024-0.049,0.053-0.074,0.078 c-0.017,0.016-0.073,0.06-0.085,0.072c-0.117,0.081-0.239,0.155-0.365,0.221C18.35,23.91,18.318,23.927,18.285,23.943z"/><path d="M31.272,21.468c-0.362-0.294-0.758-0.434-1.216-0.493c-0.461-0.041-0.877,0.186-1.228,0.461 c-0.268,0.21-0.533,0.448-0.679,0.762c-0.372,0.8,0.12,1.748,0.715,2.307c0.3,0.282,0.665,0.479,1.081,0.502 c0.436,0.024,0.822-0.203,1.151-0.463c0.62-0.489,0.969-1.263,0.827-2.05C31.849,22.079,31.595,21.73,31.272,21.468z M30.957,22.759C30.957,22.765,30.957,22.766,30.957,22.759L30.957,22.759z M30.929,23.105c-0.01,0.037-0.023,0.074-0.034,0.11 c-0.002,0.005-0.007,0.017-0.011,0.027c-0.024,0.052-0.051,0.103-0.081,0.152c-0.012,0.019-0.061,0.092-0.068,0.105 c-0.039,0.049-0.081,0.096-0.124,0.141c-0.043,0.044-0.087,0.085-0.133,0.125c-0.005,0.004-0.024,0.02-0.037,0.032 c-0.013,0.009-0.037,0.028-0.042,0.031c-0.057,0.04-0.115,0.078-0.177,0.111c-0.006,0.003-0.038,0.019-0.052,0.027 c-0.017,0.004-0.08,0.027-0.088,0.03c-0.016,0.006-0.017,0.008-0.025,0.011c-0.003,0,0.001-0.002-0.005-0.002 c-0.028,0-0.056,0.003-0.085,0.002c-0.008,0-0.03-0.004-0.045-0.006c-0.012-0.003-0.023-0.006-0.028-0.008 c-0.026-0.007-0.05-0.016-0.075-0.024c-0.002-0.001,0-0.001-0.003-0.003c-0.047-0.032-0.099-0.059-0.148-0.09 c-0.007-0.008-0.078-0.063-0.096-0.08c-0.046-0.043-0.089-0.088-0.131-0.135c-0.018-0.02-0.035-0.04-0.052-0.061 c-0.008-0.01-0.017-0.021-0.02-0.026c-0.047-0.066-0.092-0.133-0.134-0.202c-0.034-0.056-0.067-0.114-0.097-0.173 c-0.017-0.032-0.033-0.065-0.049-0.098c-0.047-0.099-0.021-0.052-0.014-0.032c-0.024-0.065-0.045-0.132-0.059-0.2 c-0.002-0.014-0.005-0.034-0.005-0.038c0-0.009,0.014-0.163-0.002-0.077c0.006-0.03,0.015-0.059,0.023-0.089 c0.003-0.012,0.003-0.014,0.004-0.02c0.002-0.001,0.002,0.001,0.006-0.005c0.017-0.023,0.029-0.052,0.045-0.077 c0.008-0.013,0.018-0.026,0.025-0.036c0.09-0.104,0.19-0.198,0.296-0.285c0.028-0.023,0.056-0.047,0.086-0.069 c-0.05,0.038,0.029-0.019,0.046-0.03c0.064-0.044,0.13-0.082,0.198-0.119c0.02-0.011,0.016-0.008,0.023-0.012 c0.045-0.016,0.09-0.029,0.136-0.041c0.009-0.002,0.02-0.002,0.03-0.002c0.036,0,0.073,0.001,0.109,0.003 c0.024,0.005,0.088,0.016,0.107,0.021c0.055,0.013,0.11,0.028,0.164,0.047c0.015,0.005,0.03,0.011,0.045,0.017 c0.01,0.004,0.021,0.009,0.028,0.013c0.062,0.034,0.122,0.068,0.181,0.106c0.019,0.012,0.013,0.008,0.018,0.011 c0.018,0.014,0.035,0.029,0.052,0.043c0.046,0.04,0.09,0.083,0.132,0.127c0.019,0.02,0.126,0.161,0.07,0.075 c0.016,0.024,0.032,0.048,0.046,0.073c0.012,0.021,0.049,0.133,0.022,0.039c0.016,0.057,0.034,0.113,0.048,0.171 c0.002,0.008,0.003,0.022,0.005,0.033c0.002,0.02,0.003,0.039,0.004,0.059c0.002,0.061-0.002,0.121-0.005,0.182 c0,0.002,0,0.002-0.001,0.004C30.947,23.032,30.939,23.069,30.929,23.105z M30.955,22.989 C30.957,22.967,30.972,22.907,30.955,22.989L30.955,22.989z"/><path d="M28.615,26.884c-1.413,0.945-3.013,1.22-4.686,1.207c-1.566-0.013-3.264-0.247-4.657-1.001 c-0.149-0.081-0.292-0.077-0.414-0.027c-0.192,0.049-0.35,0.199-0.338,0.459c0.001,0.022,0.007,0.041,0.008,0.063 c0.002,0.03,0.004,0.059,0.011,0.088c0.11,0.976,0.812,1.679,1.581,2.239c0.991,0.722,2.296,0.901,3.485,1.017 c1.321,0.129,2.732-0.112,3.893-0.779c0.944-0.543,1.617-1.657,1.851-2.701C29.439,27.052,28.999,26.628,28.615,26.884z M26.995,29.286c-0.951,0.552-2.113,0.742-3.197,0.659c-0.955-0.073-2.087-0.204-2.919-0.721c-0.307-0.191-0.654-0.447-0.921-0.752 c1.268,0.441,2.655,0.609,3.973,0.619c1.36,0.011,2.702-0.165,3.936-0.677C27.636,28.77,27.345,29.083,26.995,29.286z"/><path d="M42.953,19.647c-0.019-2.493,0.255-5.008-0.043-7.492c-0.24-1.994-0.829-3.915-2.416-5.248 C37.075,4.033,32.028,5.07,27.94,5.018c-1.283-0.016-2.565-0.062-3.847-0.074c-2.529-0.013-5.052,0.04-7.581-0.011 c-2.26-0.046-4.592,0.082-6.697,0.983c-1.703,0.729-3.273,1.993-4.07,3.697c-0.45,0.96-0.601,1.996-0.664,3.045 c-0.076,1.263-0.098,2.532-0.115,3.797c-0.071,5.137,0.03,10.278,0.066,15.415c0.015,2.185-0.176,4.513,0.678,6.578 c0.821,1.984,2.464,3.202,4.462,3.852c2.08,0.677,4.317,0.7,6.482,0.623c2.22-0.08,4.44-0.13,6.66-0.04 c2.328,0.094,4.651,0.319,6.982,0.32c1.205,0.001,2.401-0.088,3.602-0.179c1.21-0.092,2.433-0.195,3.603-0.535 c1.689-0.49,3.219-1.482,4.241-2.927c1.138-1.609,1.164-3.396,1.196-5.291c0.04-2.367,0.138-4.734,0.131-7.102 C43.061,24.661,42.972,22.154,42.953,19.647z M42.02,30.503c-0.03,1.049-0.057,2.097-0.073,3.146 c-0.014,0.944,0.032,1.916-0.075,2.854c-0.193,1.696-1.219,3.18-2.631,4.106c-1.811,1.186-3.958,1.303-6.054,1.468 c-2.189,0.172-4.363,0.12-6.552-0.011c-2.148-0.128-4.291-0.246-6.444-0.233c-2.008,0.012-4.02,0.177-6.027,0.1 c-1.989-0.076-4.425-0.401-6-1.747c-1.59-1.358-2.079-3.388-2.112-5.396c-0.078-4.702-0.073-9.408-0.098-14.11 c-0.012-2.403-0.008-4.807,0.088-7.208c0.044-1.097,0.083-2.225,0.52-3.249c0.354-0.829,0.926-1.545,1.604-2.132 c3.372-2.92,8.327-2.066,12.421-2.116c1.168-0.014,2.337-0.037,3.505-0.031c2.369,0.021,4.727,0.11,7.096,0.013 c2.107-0.086,4.321-0.158,6.359,0.475c1.697,0.527,3.151,1.678,3.821,3.354c0.837,2.091,0.706,4.544,0.636,6.75 C41.855,21.191,42.152,25.846,42.02,30.503z"/></g></svg>